<svg xmlns="http://www.w3.org/2000/svg" xmlns:xlink="http://www.w3.org/1999/xlink" width="1em" height="1em" style="-ms-transform: rotate(360deg); -webkit-transform: rotate(360deg); transform: rotate(360deg);" preserveAspectRatio="xMidYMid meet" viewBox="0 0 1200 1200"><path d="M750.588 371.765l230.588-145.882L755.293 0 609.412 324.706 524.706 70.588 298.824 221.176l188.234 150.588H58.824v301.178h75.294V1200h931.763V672.941h75.295V371.765H750.588zm23.756-272.854l118.195 118.195-241.1 152.89L774.344 98.911zm-279.832 59.675l66.739 200.216-166.848-133.477 100.109-66.739zm30.194 966.12H209.412v-475.35h315.294v475.35zm0-527.06H134.118V447.059h390.588v150.587zm465.882 527.06H675.293v-475.35h315.295v475.35zm75.293-527.06H675.293V447.059h390.588v150.587z" fill="#001d9e"/></svg>