<svg xmlns="http://www.w3.org/2000/svg" xmlns:xlink="http://www.w3.org/1999/xlink" width="1em" height="1em" style="-ms-transform: rotate(360deg); -webkit-transform: rotate(360deg); transform: rotate(360deg);" preserveAspectRatio="xMidYMid meet" viewBox="0 0 1200 1200"><path d="M320.883 1200l400.642-400.664L600.234 678.07l77.836-77.836 121.266 121.289L1200 320.883 879.117 0l-400.64 400.664L599.766 521.93l-77.836 77.836-121.266-121.289L0 879.117 320.883 1200zm0-156.619L156.628 879.127l244.031-244.031 42.973 42.974-78.556 78.555 78.31 78.31 78.557-78.556 42.973 42.974-244.033 244.028zm478.476-478.477l-42.974-42.974 78.557-78.555-78.311-78.31-78.556 78.556-42.984-42.984 244.031-244.055 164.273 164.264-244.052 244.033.016.025z" fill="#EEE"/></svg>