<svg xmlns="http://www.w3.org/2000/svg" xmlns:xlink="http://www.w3.org/1999/xlink" width="1em" height="1em" style="-ms-transform: rotate(360deg); -webkit-transform: rotate(360deg); transform: rotate(360deg);" preserveAspectRatio="xMidYMid meet" viewBox="0 0 1200 1200"><path d="M605.847 26.888l-37.454 107.02-112.955 322.836-342.008-1.483L0 454.727l90.281 68.734 272.087 207.211-107.137 324.737-35.495 107.73 93.249-64.58 281.11-194.747 275.827 202.228 91.468 67.072-32.646-108.622-98.412-327.586 277.607-199.792 92.061-66.3-113.37-2.493-341.949-7.717-104.23-325.686-34.604-108.028zm-3.205 239.145l77.936 243.538 8.25 25.818 27.065.595 255.646 5.697-207.509 149.4-22.021 15.788 7.835 25.938 73.542 244.903-206.202-151.18-21.844-16.026-22.259 15.433-210.179 145.602 80.13-242.825 8.429-25.701-21.546-16.44-203.354-154.86 255.646 1.128 27.066.119 8.962-25.583 84.407-241.344z" fill="rgba(127,127,127,.5)"/></svg>