<?xml version="1.0" encoding="UTF-8" standalone="no"?>
<svg
   xmlns:dc="http://purl.org/dc/elements/1.1/"
   xmlns:cc="http://creativecommons.org/ns#"
   xmlns:rdf="http://www.w3.org/1999/02/22-rdf-syntax-ns#"
   xmlns:svg="http://www.w3.org/2000/svg"
   xmlns="http://www.w3.org/2000/svg"
   xmlns:sodipodi="http://sodipodi.sourceforge.net/DTD/sodipodi-0.dtd"
   xmlns:inkscape="http://www.inkscape.org/namespaces/inkscape"
   style="height: 72px; width: 72px;"
   viewBox="0 0 512 512"
   version="1.1"
   id="svg3719"
   sodipodi:docname="air.svg"
   inkscape:version="0.92.3 (2405546, 2018-03-11)">
  <metadata
     id="metadata3725">
    <rdf:RDF>
      <cc:Work
         rdf:about="">
        <dc:format>image/svg+xml</dc:format>
        <dc:type
           rdf:resource="http://purl.org/dc/dcmitype/StillImage" />
        <dc:title></dc:title>
      </cc:Work>
    </rdf:RDF>
  </metadata>
  <defs
     id="defs3723" />
  <sodipodi:namedview
     pagecolor="#ffffff"
     bordercolor="#666666"
     borderopacity="1"
     objecttolerance="10"
     gridtolerance="10"
     guidetolerance="10"
     inkscape:pageopacity="0"
     inkscape:pageshadow="2"
     inkscape:window-width="1920"
     inkscape:window-height="1018"
     id="namedview3721"
     showgrid="false"
     inkscape:zoom="1.6640625"
     inkscape:cx="158.34742"
     inkscape:cy="256"
     inkscape:window-x="1272"
     inkscape:window-y="-8"
     inkscape:window-maximized="1"
     inkscape:current-layer="g3717" />
  <path
     d="M0 0h512v512H0z"
     fill="#000"
     fill-opacity="0"
     id="path3713" />
  <g
     class=""
     style="touch-action: none;"
     transform="translate(0,0)"
     id="g3717">
    <path
       d="M164.672 15.316c-4.24-.02-8.52-.008-12.848.032 356.973 34.267 149.668 296.606-133.02 225.675v29.272c208.715 52.028 406.9-83.077 335.225-186.316 74.252 54.5 10.927 228.767-217.44 261.272 80.052-17.795 151.75-58.013 188.793-112.78v-.003c-76.777 75.27-199.896 99.73-306.61 83.514v38.547l.03.003v29.983c103.604 17.95 230.47-10.83 317.05-98.192-64.335 91.95-198.984 149.52-317.05 142.64v62.942C398.408 491.783 590.073 234.433 449.346 98c90.898 155.644-119.865 338.862-308.12 339.258C392.92 399.278 523.24 116.29 322.532 33.352c-43.685-11.26-96.104-17.76-157.86-18.036z"
       fill="#eeeeee"
       fill-opacity="1"
       id="path3715"
       style="fill:#67b0be;fill-opacity:1" />
  </g>
</svg>
