<?xml version="1.0" encoding="UTF-8" standalone="no"?>
<svg
   xmlns:dc="http://purl.org/dc/elements/1.1/"
   xmlns:cc="http://creativecommons.org/ns#"
   xmlns:rdf="http://www.w3.org/1999/02/22-rdf-syntax-ns#"
   xmlns:svg="http://www.w3.org/2000/svg"
   xmlns="http://www.w3.org/2000/svg"
   xmlns:sodipodi="http://sodipodi.sourceforge.net/DTD/sodipodi-0.dtd"
   xmlns:inkscape="http://www.inkscape.org/namespaces/inkscape"
   style="height: 72px; width: 72px;"
   viewBox="0 0 512 512"
   version="1.1"
   id="svg4552"
   sodipodi:docname="alien.svg"
   inkscape:version="0.92.3 (2405546, 2018-03-11)">
  <metadata
     id="metadata4558">
    <rdf:RDF>
      <cc:Work
         rdf:about="">
        <dc:format>image/svg+xml</dc:format>
        <dc:type
           rdf:resource="http://purl.org/dc/dcmitype/StillImage" />
        <dc:title></dc:title>
      </cc:Work>
    </rdf:RDF>
  </metadata>
  <defs
     id="defs4556" />
  <sodipodi:namedview
     pagecolor="#ffffff"
     bordercolor="#666666"
     borderopacity="1"
     objecttolerance="10"
     gridtolerance="10"
     guidetolerance="10"
     inkscape:pageopacity="0"
     inkscape:pageshadow="2"
     inkscape:window-width="1920"
     inkscape:window-height="1018"
     id="namedview4554"
     showgrid="false"
     inkscape:zoom="0.921875"
     inkscape:cx="484.21082"
     inkscape:cy="139.23114"
     inkscape:window-x="1272"
     inkscape:window-y="-8"
     inkscape:window-maximized="1"
     inkscape:current-layer="svg4552" />
  <path
     d="M0 0h512v512H0z"
     fill="#000"
     fill-opacity="0"
     id="path4546" />
  <g
     class=""
     style="touch-action: none;"
     transform="translate(0,0)"
     id="g4550">
    <path
       style="fill:#83e92d;fill-opacity:1"
       d="M 256 21.3125 C 121.082 21.3125 63.779297 126.5325 63.779297 232.6875 C 63.779297 338.8405 256 493.65625 256 493.65625 C 256 493.65625 448.2207 338.8425 448.2207 232.6875 C 448.2207 126.5335 390.917 21.3125 256 21.3125 z M 255.9375 95.6875 C 256.7075 96.2875 257.33675 96.80625 258.09375 97.40625 C 304.53875 133.74925 304.53875 192.56025 258.09375 228.90625 C 257.33875 229.52225 256.7085 230.047 255.9375 230.625 C 255.1675 230.027 254.508 229.4843 253.75 228.9043 C 207.305 192.5603 207.305 133.7493 253.75 97.404297 C 254.507 96.789297 255.1655 96.2855 255.9375 95.6875 z M 135.03125 203.0918 L 135.0293 203.09375 C 175.0173 202.61075 207.5207 230.5323 213.9707 276.1543 C 214.0807 277.0893 214.20375 277.9293 214.34375 278.9043 C 213.39975 279.1663 212.70125 279.60055 211.78125 279.93555 C 157.08325 301.98755 106.16025 272.61275 97.90625 214.21875 C 97.73825 213.24575 97.641953 212.44275 97.501953 211.46875 C 98.454953 211.20575 99.181703 210.79055 100.0957 210.43555 C 112.0607 205.61155 123.83425 203.2258 135.03125 203.0918 z M 379.15625 203.09375 C 390.35225 203.22875 402.12875 205.6135 414.09375 210.4375 C 415.00775 210.7925 415.7335 211.2068 416.6875 211.4668 C 416.5475 212.4428 416.44825 213.2468 416.28125 214.2168 C 408.02925 272.6118 357.10625 301.9875 302.40625 279.9375 C 301.48625 279.6005 300.7897 279.1663 299.8457 278.9043 C 299.9857 277.9293 300.1087 277.0893 300.2207 276.1543 C 306.6687 230.5323 339.17025 202.61075 379.15625 203.09375 z "
       id="path5151" />
    <path
       id="path4548"
       style="fill:#1e941f;fill-opacity:0.94117647"
       d="m 358.969,218.063 c -4.768,-0.108 -9.633,1.065 -14.064,3.624 -12.89,7.442 -17.317,23.922 -9.875,36.812 7.444,12.89 23.923,17.317 36.814,9.875 12.89,-7.442 17.317,-23.922 9.875,-36.813 -4.885,-8.46 -13.65,-13.296 -22.75,-13.5 z m -203.75,0 c -9.102,0.202 -17.867,5.04 -22.75,13.5 -7.444,12.89 -3.017,29.37 9.874,36.81 12.89,7.443 29.37,3.016 36.812,-9.874 7.442,-12.89 3.016,-29.37 -9.875,-36.813 -4.43,-2.558 -9.294,-3.73 -14.06,-3.625 z m 100.718,-81.656 c -14.884,0 -26.937,12.052 -26.937,26.937 0,14.884 12.053,26.937 26.938,26.937 14.884,0 26.937,-12.052 26.937,-26.936 0,-14.885 -12.053,-26.938 -26.938,-26.938 z" />
  </g>
</svg>
