<?xml version="1.0" encoding="UTF-8" standalone="no"?>
<svg
   xmlns:dc="http://purl.org/dc/elements/1.1/"
   xmlns:cc="http://creativecommons.org/ns#"
   xmlns:rdf="http://www.w3.org/1999/02/22-rdf-syntax-ns#"
   xmlns:svg="http://www.w3.org/2000/svg"
   xmlns="http://www.w3.org/2000/svg"
   xmlns:sodipodi="http://sodipodi.sourceforge.net/DTD/sodipodi-0.dtd"
   xmlns:inkscape="http://www.inkscape.org/namespaces/inkscape"
   style="height: 72px; width: 72px;"
   viewBox="0 0 512 512"
   version="1.1"
   id="svg5787"
   sodipodi:docname="bowl.svg"
   inkscape:version="0.92.3 (2405546, 2018-03-11)">
  <metadata
     id="metadata5793">
    <rdf:RDF>
      <cc:Work
         rdf:about="">
        <dc:format>image/svg+xml</dc:format>
        <dc:type
           rdf:resource="http://purl.org/dc/dcmitype/StillImage" />
        <dc:title></dc:title>
      </cc:Work>
    </rdf:RDF>
  </metadata>
  <defs
     id="defs5791" />
  <sodipodi:namedview
     pagecolor="#ffffff"
     bordercolor="#666666"
     borderopacity="1"
     objecttolerance="10"
     gridtolerance="10"
     guidetolerance="10"
     inkscape:pageopacity="0"
     inkscape:pageshadow="2"
     inkscape:window-width="1920"
     inkscape:window-height="1018"
     id="namedview5789"
     showgrid="false"
     inkscape:zoom="0.65186406"
     inkscape:cx="932.7219"
     inkscape:cy="-30.281463"
     inkscape:window-x="1272"
     inkscape:window-y="-8"
     inkscape:window-maximized="1"
     inkscape:current-layer="svg5787" />
  <path
     d="M0 0h512v512H0z"
     fill="#000"
     fill-opacity="0"
     id="path5781" />
  <g
     class=""
     style="touch-action: none;"
     transform="translate(0,0)"
     id="g5785">
    <path
       style="fill:#7d82da;fill-opacity:1"
       d="M 267.98242 22.289062 C 250.88742 22.289062 237.0293 36.150141 237.0293 53.244141 C 237.0293 70.340141 250.88547 84.197266 267.98047 84.197266 C 285.07647 84.197266 298.93555 70.340141 298.93555 53.244141 C 298.93555 36.149141 285.07647 22.291016 267.98047 22.291016 L 267.98242 22.289062 z M 265.21289 31.619141 L 265.21289 31.621094 C 265.21089 31.621371 265.20903 31.622747 265.20703 31.623047 C 263.24684 32.506254 261.60044 33.925901 259.99219 35.535156 C 252.86419 42.663156 252.64839 54.277297 259.77539 61.404297 C 266.90339 68.534297 278.73528 68.534297 285.86328 61.404297 C 287.57028 59.699297 288.67055 57.630156 289.56055 55.535156 C 289.03455 60.269156 287.10161 64.951125 283.47461 68.578125 C 274.98761 77.065125 261.30731 76.846328 252.82031 68.361328 L 252.81836 68.361328 C 244.33436 59.878328 244.11652 46.194937 252.60352 37.710938 C 256.08198 34.232478 260.67897 32.250969 265.20703 31.623047 C 265.20903 31.622089 265.21089 31.620141 265.21289 31.619141 z M 176.12109 33.912109 L 176.12109 33.914062 C 152.20509 33.914062 132.82031 53.298844 132.82031 77.214844 C 132.82031 101.12884 152.20514 120.51367 176.11914 120.51367 C 179.34914 120.51367 182.49544 120.14852 185.52344 119.47852 C 186.80644 135.39352 200.11923 147.91211 216.36523 147.91211 C 233.46123 147.91211 247.31836 134.05594 247.31836 116.96094 C 247.31836 100.58694 234.60086 87.189844 218.50586 86.089844 C 219.10286 83.223844 219.42188 80.255891 219.42188 77.212891 C 219.42188 53.297891 200.03509 33.912109 176.12109 33.912109 z M 169.64453 49.794922 C 166.97124 50.997975 164.72772 52.934391 162.53516 55.126953 C 152.81816 64.842953 152.52428 80.676578 162.23828 90.392578 C 171.95328 100.10858 188.08383 100.10858 197.79883 90.392578 C 200.12683 88.065578 201.62489 85.242625 202.83789 82.390625 C 202.11989 88.844625 199.48311 95.228826 194.53711 100.17383 C 182.97211 111.74183 164.32186 111.44395 152.75586 99.876953 L 152.75391 99.876953 C 141.18791 88.310953 140.89098 69.656797 152.45898 58.091797 C 157.20098 53.348797 163.47253 50.648922 169.64453 49.794922 z M 324.49023 87.195312 C 292.23523 87.195312 266.08789 113.34361 266.08789 145.59961 C 266.08789 177.85461 292.23523 204.00195 324.49023 204.00195 C 356.74623 204.00195 382.89258 177.85461 382.89258 145.59961 C 382.89258 113.34361 356.74623 87.195313 324.49023 87.195312 z M 212.91992 98.933594 L 212.91992 98.935547 C 211.06992 99.765547 209.51995 101.10505 208.00195 102.62305 C 201.28195 109.34305 201.07592 120.29272 207.79492 127.01172 C 214.51292 133.72972 225.66767 133.72972 232.38867 127.01172 C 233.99667 125.40172 235.03114 123.45152 235.86914 121.47852 C 235.37514 125.93852 233.55277 130.35148 230.13477 133.77148 C 222.13477 141.77148 209.23728 141.56541 201.23828 133.56641 C 193.24028 125.56841 193.03225 112.67087 201.03125 104.67188 C 204.31125 101.39186 208.65092 99.521594 212.91992 98.933594 z M 317.80664 101.65234 L 317.81055 101.65234 C 313.89755 103.41234 310.61725 106.24408 307.40625 109.45508 C 293.19625 123.66508 292.76166 146.82511 306.97266 161.03711 C 321.18266 175.24711 344.77633 175.24711 358.98633 161.03711 C 362.38833 157.63311 364.58147 153.50798 366.35547 149.33398 C 365.30547 158.77198 361.45075 168.10684 354.21875 175.33984 C 337.29875 192.25984 310.01956 191.82525 293.10156 174.90625 C 276.18156 157.98625 275.74897 130.70806 292.66797 113.78906 C 299.60497 106.85306 308.77664 102.90134 317.80664 101.65234 z "
       id="path6385" />
    <path
       style="fill:#6253de;fill-opacity:1"
       d="M 221.68555 169.72266 C 197.81555 169.72266 178.4668 189.07045 178.4668 212.93945 C 178.4668 236.80945 197.81555 256.16016 221.68555 256.16016 C 245.55555 256.16016 264.90234 236.80945 264.90234 212.93945 C 264.90234 189.07145 245.55455 169.72461 221.68555 169.72461 L 221.68555 169.72266 z M 218.16602 181.52539 L 218.16602 181.52734 C 218.16402 181.52762 218.16216 181.5293 218.16016 181.5293 C 215.33897 182.79951 212.97255 184.84295 210.6543 187.1582 C 200.3923 197.4202 200.08175 214.13839 210.34375 224.40039 C 220.60575 234.66239 237.63844 234.66239 247.89844 224.40039 C 250.35444 221.94339 251.93875 218.96517 253.21875 215.95117 C 252.46275 222.76617 249.67808 229.50552 244.45508 234.72852 C 232.24008 246.94352 212.54314 246.63297 200.32812 234.41797 L 200.32617 234.41797 C 188.11117 222.20297 187.79567 202.50311 200.01367 190.28711 C 205.02013 185.28165 211.6421 182.43022 218.16016 181.5293 C 218.16216 181.52834 218.16402 181.52639 218.16602 181.52539 z "
       id="path6371" />
    <path
       d="M 300.48828 249.63086 L 300.48828 249.63281 C 286.33528 249.63281 274.4097 259.13156 270.7207 272.10156 C 265.7067 272.00456 260.66341 271.93555 255.56641 271.93555 C 191.41641 271.93555 133.34988 279.79547 90.546875 292.85547 C 69.143875 299.38547 51.541187 307.15552 38.617188 316.47852 C 24.182187 329.32552 12.990578 340.92853 17.767578 359.39453 C 23.257578 395.84453 49.983375 427.76591 88.484375 450.87891 C 131.82438 476.89591 190.70045 492.58008 255.56445 492.58008 C 320.42945 492.58008 379.30453 476.89495 422.64453 450.87695 C 461.12453 427.77395 487.84547 395.87622 493.35547 359.44922 C 494.06247 354.94222 494.84123 349.73322 493.86523 345.44922 C 491.72523 334.16922 483.57148 324.44956 472.52148 316.47656 C 459.59648 307.15256 441.9938 299.38452 420.5918 292.85352 C 395.4168 285.17152 364.93341 279.30958 331.06641 275.76758 C 328.75341 260.95958 315.94628 249.63086 300.48828 249.63086 z M 299.22852 261.22852 L 299.22852 261.23047 C 299.22651 261.23075 299.22466 261.23214 299.22266 261.23242 C 297.37547 262.06463 295.82685 263.40171 294.30859 264.91797 C 287.59059 271.63797 287.38452 282.58569 294.10352 289.30469 C 300.82152 296.02269 311.97336 296.02269 318.69336 289.30469 C 320.30336 287.69469 321.34069 285.74353 322.17969 283.76953 C 321.68369 288.23353 319.85945 292.64641 316.43945 296.06641 C 308.44245 304.06641 295.54588 303.86033 287.54688 295.86133 C 279.54688 287.86433 279.3428 274.96775 287.3418 266.96875 C 290.62026 263.69029 294.9556 261.82235 299.22266 261.23242 C 299.22478 261.23146 299.22639 261.22947 299.22852 261.22852 z M 255.56641 290.63281 L 255.56641 290.63477 C 260.85241 290.63477 266.07844 290.70741 271.27344 290.81641 C 275.49944 302.88141 286.98028 311.53711 300.48828 311.53711 C 312.65828 311.53711 323.17833 304.51473 328.23633 294.30273 C 361.51433 297.74673 391.23181 303.44528 415.13281 310.73828 C 435.26481 316.88228 451.27608 324.20958 461.58008 331.64258 C 470.85008 338.32958 474.88742 344.43119 475.60742 349.61719 C 475.50042 351.54319 475.32341 353.46305 475.06641 355.37305 C 473.58341 360.02105 469.48708 365.30091 461.58008 371.00391 C 459.17308 372.74091 456.44259 374.47159 453.43359 376.18359 C 392.88359 308.58159 133.64713 304.67841 56.203125 375.31641 C 53.780125 373.88841 51.557686 372.44891 49.554688 371.00391 C 41.627688 365.28391 37.528687 359.99098 36.054688 355.33398 C 35.804688 353.44598 35.630437 351.55048 35.523438 349.64648 C 36.231437 344.45448 40.268687 338.33963 49.554688 331.64062 C 59.859687 324.20662 75.868953 316.88128 96.001953 310.73828 C 136.26695 298.45128 192.95841 290.63281 255.56641 290.63281 z M 52.375 394.61719 L 52.376953 394.61719 C 63.151953 400.31719 75.964875 405.34202 90.546875 409.79102 C 133.34987 422.85402 191.41641 430.71094 255.56641 430.71094 C 319.71641 430.71094 377.78584 422.85402 420.58984 409.79102 C 435.16584 405.34402 447.97405 400.32005 458.74805 394.62305 C 448.05305 409.47805 432.57344 423.11947 413.02344 434.85547 C 373.27844 458.71547 317.3925 473.89648 255.5625 473.89648 C 193.7345 473.89648 137.84952 458.71547 98.103516 434.85547 C 78.551516 423.11847 63.07 409.47519 52.375 394.61719 z "
       id="path5801"
       style="fill:#431ecf;fill-opacity:1" />
  </g>
</svg>
