<?xml version="1.0" encoding="UTF-8" standalone="no"?>
<svg
   xmlns:dc="http://purl.org/dc/elements/1.1/"
   xmlns:cc="http://creativecommons.org/ns#"
   xmlns:rdf="http://www.w3.org/1999/02/22-rdf-syntax-ns#"
   xmlns:svg="http://www.w3.org/2000/svg"
   xmlns="http://www.w3.org/2000/svg"
   xmlns:sodipodi="http://sodipodi.sourceforge.net/DTD/sodipodi-0.dtd"
   xmlns:inkscape="http://www.inkscape.org/namespaces/inkscape"
   style="height: 72px; width: 72px;"
   viewBox="0 0 512 512"
   version="1.1"
   id="svg6426"
   sodipodi:docname="cockroach.svg"
   inkscape:version="0.92.3 (2405546, 2018-03-11)">
  <metadata
     id="metadata6432">
    <rdf:RDF>
      <cc:Work
         rdf:about="">
        <dc:format>image/svg+xml</dc:format>
        <dc:type
           rdf:resource="http://purl.org/dc/dcmitype/StillImage" />
        <dc:title></dc:title>
      </cc:Work>
    </rdf:RDF>
  </metadata>
  <defs
     id="defs6430" />
  <sodipodi:namedview
     pagecolor="#ffffff"
     bordercolor="#666666"
     borderopacity="1"
     objecttolerance="10"
     gridtolerance="10"
     guidetolerance="10"
     inkscape:pageopacity="0"
     inkscape:pageshadow="2"
     inkscape:window-width="1920"
     inkscape:window-height="1018"
     id="namedview6428"
     showgrid="false"
     inkscape:zoom="0.65186406"
     inkscape:cx="267.24093"
     inkscape:cy="198.81136"
     inkscape:window-x="1272"
     inkscape:window-y="-8"
     inkscape:window-maximized="1"
     inkscape:current-layer="svg6426" />
  <path
     d="M0 0h512v512H0z"
     fill="#000"
     fill-opacity="0"
     id="path6420" />
  <g
     class=""
     style="touch-action:none;fill:#644b00;fill-opacity:1"
     transform="translate(0,0)"
     id="g6424">
    <path
       id="path6981"
       style="fill:#43581d;fill-opacity:1"
       d="m 338.357,358.49 c -1.893,5.976 -4.052,11.928 -6.48,17.85 l 53.69,9.224 15.472,42.623 52.78,22.534 7.338,-17.187 -45.32,-19.347 -16.406,-45.202 -61.075,-10.494 z m -156.532,-1.243 -68.317,11.737 -16.406,45.202 -45.32,19.347 7.34,17.188 52.78,-22.533 15.47,-42.623 60.86,-10.457 c -2.407,-5.927 -4.545,-11.883 -6.408,-17.86 z m 233.1,-55.95 -66.78,2.617 c -0.273,6.262 -0.837,12.523 -1.69,18.772 l 56.873,-2.23 18.777,39.577 53.983,11.725 3.967,-18.264 -45.002,-9.773 -20.13,-42.423 z m -316.91,0 -20.125,42.423 -45.005,9.774 3.967,18.264 53.982,-11.725 18.78,-39.578 64.552,2.53 c -0.853,-6.248 -1.408,-12.508 -1.672,-18.77 l -74.478,-2.918 z m 325.44,-67.515 -79.898,17.61 c 1.347,6.127 2.418,12.273 3.195,18.432 l 67.506,-14.877 21.48,36.328 54.244,1.55 0.534,-18.682 -43.938,-1.254 z m -333.97,0 -23.123,39.108 -43.94,1.253 0.534,18.68 54.244,-1.548 21.482,-36.328 75.123,16.555 c 0.755,-6.16 1.79,-12.313 3.123,-18.447 L 89.484,233.783 Z M 340.437,22.85 c -15.218,-0.055 -30.263,5.84 -42.27,17.654 -13.15,12.94 -22.78,32.528 -27.59,58.74 6.3,0.84 12.384,2.374 18.173,4.526 4.242,-24.07 12.717,-40.296 22.523,-49.946 10.07,-9.91 21.386,-13.424 33.547,-12.02 24.322,2.805 52.92,27.99 65.207,73.753 8.92,33.22 27.343,54.268 47.565,63.61 12.757,5.892 26.368,7.098 38.162,3.71 v -20.084 c -7.74,4.262 -18.71,4.773 -30.324,-0.592 -14.47,-6.683 -29.58,-22.532 -37.354,-51.49 -13.71,-51.067 -46.35,-83.46 -81.115,-87.472 -2.172,-0.25 -4.348,-0.38 -6.522,-0.388 z m -164.857,0 c -2.174,0.007 -4.353,0.138 -6.525,0.388 -34.765,4.01 -67.404,36.405 -81.116,87.473 -7.775,28.958 -22.882,44.807 -37.352,51.49 -11.51,5.318 -22.383,4.86 -30.11,0.702 v 20.04 c 11.742,3.31 25.265,2.08 37.946,-3.776 20.222,-9.34 38.646,-30.388 47.566,-63.61 12.287,-45.76 40.885,-70.947 65.207,-73.753 12.16,-1.403 23.476,2.11 33.547,12.02 9.938,9.78 18.513,26.304 22.695,50.91 5.74,-2.34 11.79,-4.07 18.07,-5.104 C 240.721,73.224 231.064,53.506 217.85,40.504 205.844,28.69 190.8,22.794 175.58,22.85 Z" />
    <path
       id="path6422"
       style="fill:#644b00;fill-opacity:1"
       d="m 316.875,406.766 c -11.704,20.247 -26.642,39.966 -44.766,58.857 8.48,7.573 18.01,14.778 28.56,21.553 8.677,-27.852 14.833,-55.58 16.205,-80.41 z m -116.59,-6.306 c -1.914,29.147 4.493,60.784 17.197,87.61 11.43,-7.24 21.753,-15.01 30.81,-23.166 -19.876,-20.682 -35.897,-42.284 -48.007,-64.445 z m 3.35,-171.318 c -28.358,74.212 -10.03,151.08 56.904,221.358 66.006,-69.856 84.616,-147.21 56.888,-221.332 -13.99,6.558 -29.088,10.553 -44.45,11.96 -0.28,60.717 -4.582,121.43 -11.962,182.143 -6.524,-60.676 -10.983,-121.354 -11.73,-182.032 -15.687,-1.294 -31.2,-5.304 -45.65,-12.095 z m 55.692,-111.96 c -36.628,0 -66.12,29.49 -66.12,66.117 0,7.254 1.174,14.22 3.314,20.743 l 6.876,3.97 c 34.858,20.124 80.19,19.712 114.334,0 l 3.8,-2.197 c 2.53,-7.023 3.913,-14.602 3.913,-22.517 0,-36.628 -29.49,-66.118 -66.117,-66.118 z" />
  </g>
</svg>
