<?xml version="1.0" encoding="UTF-8" standalone="no"?>
<svg
   xmlns:dc="http://purl.org/dc/elements/1.1/"
   xmlns:cc="http://creativecommons.org/ns#"
   xmlns:rdf="http://www.w3.org/1999/02/22-rdf-syntax-ns#"
   xmlns:svg="http://www.w3.org/2000/svg"
   xmlns="http://www.w3.org/2000/svg"
   xmlns:sodipodi="http://sodipodi.sourceforge.net/DTD/sodipodi-0.dtd"
   xmlns:inkscape="http://www.inkscape.org/namespaces/inkscape"
   width="512"
   height="512"
   id="svg3045"
   version="1.1"
   inkscape:version="0.48.5 r10040"
   sodipodi:docname="dark-woman.svg">
  <metadata
     id="metadata3063">
    <rdf:RDF>
      <cc:Work
         rdf:about="">
        <dc:format>image/svg+xml</dc:format>
        <dc:type
           rdf:resource="http://purl.org/dc/dcmitype/StillImage" />
      </cc:Work>
    </rdf:RDF>
  </metadata>
  <defs
     id="defs3061" />
  <sodipodi:namedview
     pagecolor="#ffffff"
     bordercolor="#666666"
     borderopacity="1"
     objecttolerance="10"
     gridtolerance="10"
     guidetolerance="10"
     inkscape:pageopacity="0"
     inkscape:pageshadow="2"
     inkscape:window-width="1920"
     inkscape:window-height="1018"
     id="namedview3059"
     showgrid="false"
     inkscape:zoom="1.4142136"
     inkscape:cx="51.249282"
     inkscape:cy="262.1125"
     inkscape:window-x="1272"
     inkscape:window-y="-8"
     inkscape:window-maximized="1"
     inkscape:current-layer="svg3045" />
  <g
     id="g3047"
     transform="translate(0,-53)">
    <title
       id="title3049">background</title>
    <rect
       id="canvas_background"
       height="402"
       width="582"
       y="-1"
       x="-1"
       style="fill:none" />
  </g>
  <g
     id="g3052"
     transform="matrix(1.5073848,0,0,1.5073848,-169.83832,-169.8283)">
    <title
       id="title3054">Layer 1</title>
    <g
       id="svg_2">
      <path
         id="path3629"
         d="m 225.65478,288.41925 -19.79937,-0.2041 15.30877,-85.52512 c 2.28186,-9.64178 10.70746,-23.7055 25.92292,-27.75993 23.6886,-6.10881 47.20795,-5.86504 69.80804,0 10.67487,3.34846 21.76416,9.33801 25.92291,29.18875 l 16.32935,85.7292 -20.41168,0 -20.81995,-73.27804 -6.94,28.78051 c 17.75293,26.76554 28.97522,57.00046 29.33527,93.00595 l -34.56214,0.3444 -9.4696,113.62445 -26.94342,0 -11.4306,-114.1015 -34.29169,0.20413 c -0.58911,-30.78336 12.79974,-71.34928 30.20935,-93.07743 l -7.96057,-28.16816 -20.20758,71.23689 z"
         inkscape:connector-curvature="0"
         style="fill:#eeeeee" />
      <path
         id="path3631"
         d="m 307.91406,138.59726 a 25.922882,25.922882 0 1 1 -51.84576,0 25.922882,25.922882 0 1 1 51.84576,0 z"
         inkscape:connector-curvature="0"
         style="fill:#eeeeee" />
    </g>
  </g>
</svg>
