<?xml version="1.0" encoding="UTF-8" standalone="no"?>
<!--?xml version="1.0" encoding="utf-8"?-->

<!-- Generator: Adobe Illustrator 18.1.1, SVG Export Plug-In . SVG Version: 6.00 Build 0)  -->

<svg
   xmlns:dc="http://purl.org/dc/elements/1.1/"
   xmlns:cc="http://creativecommons.org/ns#"
   xmlns:rdf="http://www.w3.org/1999/02/22-rdf-syntax-ns#"
   xmlns:svg="http://www.w3.org/2000/svg"
   xmlns="http://www.w3.org/2000/svg"
   xmlns:sodipodi="http://sodipodi.sourceforge.net/DTD/sodipodi-0.dtd"
   xmlns:inkscape="http://www.inkscape.org/namespaces/inkscape"
   version="1.1"
   id="_x31_0"
   x="0px"
   y="0px"
   viewBox="0 0 512 512"
   xml:space="preserve"
   inkscape:version="0.48.5 r10040"
   width="100%"
   height="100%"
   sodipodi:docname="dark-sponge.svg"
   style="width: 256px; height: 256px; opacity: 1;"><metadata
   id="metadata3013"><rdf:RDF><cc:Work
       rdf:about=""><dc:format>image/svg+xml</dc:format><dc:type
         rdf:resource="http://purl.org/dc/dcmitype/StillImage" /></cc:Work></rdf:RDF></metadata><defs
   id="defs3011" /><sodipodi:namedview
   pagecolor="#ffffff"
   bordercolor="#666666"
   borderopacity="1"
   objecttolerance="10"
   gridtolerance="10"
   guidetolerance="10"
   inkscape:pageopacity="0"
   inkscape:pageshadow="2"
   inkscape:window-width="1920"
   inkscape:window-height="1018"
   id="namedview3009"
   showgrid="false"
   inkscape:zoom="1.6269531"
   inkscape:cx="256"
   inkscape:cy="270.17604"
   inkscape:window-x="1272"
   inkscape:window-y="-8"
   inkscape:window-maximized="1"
   inkscape:current-layer="_x31_0" />
<style
   type="text/css"
   id="style3001">
	.st0{fill:#374149;}
</style>
<g
   id="g3003"
   transform="matrix(0.93517407,0,0,0.96838709,16.595438,8.0929325)">
	<path
   class="st0"
   d="m 512,248.88 c -0.039,0.05 -0.086,0.094 -0.125,0.144 v -0.242 c -16.898,22.072 -47.122,36.338 -82.527,38.205 -52.214,2.633 -102.221,22.417 -137.114,54.081 -27.17,24.623 -68.433,38.718 -113.262,38.718 -51.281,0 -96.282,-18.594 -120.306,-49.668 L 8.146,264.915 c -2.351,-3.035 -4.338,-6.132 -6.15,-9.256 -0.622,-1.16 -1.328,-2.308 -1.84,-3.483 l 0.004,0.281 C 0.11,252.363 0.047,252.274 0,252.176 v 36.936 h 0.082 c 0,22.158 6.623,29.204 11.122,35.062 l 48.313,60.536 c 0.871,1.129 1.949,2.102 2.874,3.191 1.129,1.319 2.292,2.612 3.503,3.882 2.167,2.269 4.44,4.432 6.834,6.502 1.02,0.882 2.058,1.754 3.125,2.601 2.773,2.214 5.658,4.303 8.678,6.272 0.988,0.644 1.984,1.281 2.995,1.902 3.155,1.926 6.413,3.718 9.782,5.39 1.176,0.582 2.355,1.16 3.554,1.714 3.261,1.495 6.592,2.87 10.009,4.139 1.492,0.555 2.984,1.106 4.507,1.621 3.296,1.11 6.642,2.094 10.048,2.999 1.706,0.45 3.406,0.906 5.147,1.312 8.018,1.863 16.25,3.164 24.626,3.937 0.047,0.004 0.098,0.008 0.145,0.012 11.009,1.007 22.158,1.062 33.25,0.191 0.313,-0.023 0.618,-0.05 0.93,-0.078 4.655,-0.386 9.267,-0.922 13.86,-1.64 0.824,-0.125 1.632,-0.274 2.453,-0.414 4.085,-0.691 8.118,-1.488 12.11,-2.441 1.122,-0.266 2.21,-0.57 3.32,-0.855 3.726,-0.965 7.401,-2.008 11.013,-3.206 1.062,-0.355 2.086,-0.75 3.136,-1.121 3.64,-1.293 7.225,-2.652 10.708,-4.182 0.656,-0.286 1.274,-0.614 1.922,-0.91 12.13,-5.534 23.287,-12.399 32.641,-20.882 18.421,-16.726 40.666,-30.141 64.949,-39.736 24.283,-9.51 50.687,-15.196 77.43,-16.641 29.802,-1.527 53.658,-11.884 69.112,-26.83 12.649,-12.223 19.698,-27.509 19.698,-43.555 V 257.285 L 512,248.88 z"
   style="fill:#eeeeee"
   id="path3005"
   inkscape:connector-curvature="0" />
	<path
   class="st0"
   d="m 72.08,319.675 c 20.886,27.001 60.79,43.13 106.892,43.13 20.038,0 39.565,-3.226 57.056,-9.083 17.488,-5.858 32.942,-14.52 44.743,-25.217 37.866,-34.3 91.693,-55.611 147.73,-58.498 35.487,-1.866 64.61,-17.66 75.986,-41.263 4.417,-9.255 5.772,-19.019 4.159,-28.782 -1.442,-7.978 -4.925,-15.874 -10.357,-23.431 l -37.44,-52.128 C 442.17,98.421 402.519,81.015 362.107,81.015 c -25.049,0 -47.801,6.71 -64.102,19.018 -38.631,29.036 -96.45,44.404 -161.996,43.47 l -3.479,-0.086 c -55.018,0 -102.733,22.077 -118.776,54.846 -0.258,0.598 -0.511,1.105 -0.766,1.698 -8.15,17.918 -5.178,36.765 8.658,54.593 l 50.434,65.121 z m 42.247,-50.976 c 2.562,-5.6 8.248,-10.498 16.844,-13.294 17.238,-5.604 36.85,0.168 45.169,11.204 8.404,11.04 4.077,25.302 -12.735,31.246 -17.148,6.112 -38.12,0.254 -46.782,-11.036 -4.335,-5.64 -5.124,-12.006 -2.706,-17.687 0.062,-0.148 0.144,-0.289 0.21,-0.433 z m 58.193,-83.851 c 5.773,4.162 6.96,10.021 4.327,15.113 -1.273,2.546 -3.479,4.839 -6.538,6.624 -9.337,5.518 -22.752,4.245 -31.582,-2.039 -2.038,-1.441 -3.566,-2.971 -4.671,-4.585 -0.374,-0.534 -0.66,-1.082 -0.933,-1.624 -0.122,-0.25 -0.25,-0.5 -0.352,-0.754 -0.418,-1.022 -0.625,-2.046 -0.671,-3.066 -0.012,-0.343 -0.039,-0.687 -0.012,-1.026 0.27,-3.347 2.566,-6.565 7.065,-9.15 9.424,-5.351 24.705,-5.773 33.367,0.507 z m 39.393,113.176 c -0.594,-7.557 8.916,-15.282 19.953,-15.707 10.954,-0.508 21.143,6.198 21.737,13.669 0.679,7.474 -8.405,15.027 -19.445,15.707 -11.036,0.596 -21.733,-6.027 -22.245,-13.669 z m 41.432,-65.461 c -15.45,5.182 -33.789,-0.675 -41.858,-11.458 -5.858,-7.728 -4.498,-15.538 2.55,-21.143 2.8,-2.292 6.451,-4.159 10.869,-5.518 13.496,-4.159 28.438,-2.039 37.272,5.518 1.355,1.106 2.546,2.378 3.562,3.738 7.814,10.524 2.89,23.684 -12.395,28.863 z m 126.57,7.225 c -4.913,-0.367 -9.603,-1.718 -13.598,-3.975 -0.301,-0.168 -0.598,-0.344 -0.89,-0.523 -1.21,-0.746 -2.374,-1.55 -3.425,-2.476 -0.047,-0.039 -0.082,-0.09 -0.129,-0.133 -1.137,-1.012 -2.175,-2.121 -3.078,-3.343 -7.471,-10.103 -3.312,-23.178 10.357,-27.762 3.226,-1.102 6.623,-1.614 10.103,-1.614 10.782,0 21.651,5.097 27.169,12.654 7.218,9.845 2.546,20.206 -10.696,25.045 -5.003,1.804 -10.373,2.503 -15.524,2.159 -0.098,-0.009 -0.191,-0.024 -0.289,-0.032 z m -6.346,-117.511 c 13.075,-3.819 30.817,1.187 37.866,10.869 7.046,9.677 0.762,20.292 -12.142,24.451 -4.733,1.495 -9.818,1.933 -14.726,1.464 -0.363,-0.035 -0.722,-0.062 -1.082,-0.109 -4.613,-0.574 -9.006,-2.004 -12.798,-4.183 -0.418,-0.242 -0.84,-0.472 -1.238,-0.73 -1.121,-0.722 -2.191,-1.503 -3.171,-2.37 -0.293,-0.254 -0.531,-0.546 -0.808,-0.812 -0.898,-0.875 -1.777,-1.766 -2.515,-2.769 -7.304,-10.018 -2.715,-21.82 10.614,-25.811 z m -20.999,63.747 c -1.207,3.238 -4.491,5.87 -9.482,6.807 -2.058,0.382 -4.124,0.426 -6.112,0.179 h -0.011 c -4.898,-0.602 -9.287,-2.952 -11.834,-6.237 -0.105,-0.137 -0.195,-0.277 -0.297,-0.418 -0.422,-0.594 -0.808,-1.203 -1.105,-1.843 -2.714,-5.862 0.847,-12.482 9.084,-13.926 2.038,-0.355 4.089,-0.344 6.069,-0.047 0.031,0.008 0.066,0.008 0.098,0.016 4.893,0.766 9.298,3.327 11.852,6.604 0.114,0.148 0.219,0.301 0.325,0.453 0.422,0.586 0.808,1.183 1.101,1.804 0.238,0.527 0.367,1.058 0.5,1.586 0.086,0.336 0.172,0.668 0.218,1.004 0.141,0.992 0.078,1.964 -0.125,2.906 -0.081,0.373 -0.148,0.748 -0.281,1.112 z"
   style="fill:#eeeeee"
   id="path3007"
   inkscape:connector-curvature="0" />
</g>
</svg>