<?xml version="1.0" encoding="UTF-8" standalone="no"?>
<svg
   xmlns:dc="http://purl.org/dc/elements/1.1/"
   xmlns:cc="http://creativecommons.org/ns#"
   xmlns:rdf="http://www.w3.org/1999/02/22-rdf-syntax-ns#"
   xmlns:svg="http://www.w3.org/2000/svg"
   xmlns="http://www.w3.org/2000/svg"
   xmlns:sodipodi="http://sodipodi.sourceforge.net/DTD/sodipodi-0.dtd"
   xmlns:inkscape="http://www.inkscape.org/namespaces/inkscape"
   style="height: 72px; width: 72px;"
   viewBox="0 0 512 512"
   version="1.1"
   id="svg7608"
   sodipodi:docname="dragon.svg"
   inkscape:version="0.92.3 (2405546, 2018-03-11)">
  <metadata
     id="metadata7614">
    <rdf:RDF>
      <cc:Work
         rdf:about="">
        <dc:format>image/svg+xml</dc:format>
        <dc:type
           rdf:resource="http://purl.org/dc/dcmitype/StillImage" />
        <dc:title></dc:title>
      </cc:Work>
    </rdf:RDF>
  </metadata>
  <defs
     id="defs7612" />
  <sodipodi:namedview
     pagecolor="#ffffff"
     bordercolor="#666666"
     borderopacity="1"
     objecttolerance="10"
     gridtolerance="10"
     guidetolerance="10"
     inkscape:pageopacity="0"
     inkscape:pageshadow="2"
     inkscape:window-width="1920"
     inkscape:window-height="1018"
     id="namedview7610"
     showgrid="false"
     inkscape:zoom="0.4609375"
     inkscape:cx="-96.542373"
     inkscape:cy="256"
     inkscape:window-x="1272"
     inkscape:window-y="-8"
     inkscape:window-maximized="1"
     inkscape:current-layer="svg7608" />
  <path
     d="M0 0h512v512H0z"
     fill="#000"
     fill-opacity="0"
     id="path7602" />
  <g
     class=""
     style="touch-action: none;"
     transform="translate(0,0)"
     id="g7606">
    <path
       style="fill:#da3303;fill-opacity:1"
       d="M 188.80078 20.380859 C 183.50078 47.230859 193.40039 76.120392 222.90039 106.90039 C 234.10039 99.610392 254.50039 95.960234 272.90039 98.740234 C 226.90039 76.430234 206.40078 51.610859 188.80078 20.380859 z M 29.189453 26.619141 C 43.559453 73.079141 81.089608 128.80078 129.59961 168.30078 C 93.509608 166.00078 49.929766 153.1 18.759766 143 C 43.719766 178.2 82.929608 195.90078 122.09961 209.30078 C 97.129608 227.00078 66.990156 245 18.660156 248 C 73.300156 267.2 126.2 256.89922 150 248.69922 C 132.1 283.59922 49.279453 314.89922 27.689453 325.69922 C 80.949453 329.89922 149.39922 314.70078 194.69922 292.80078 C 204.69922 317.40078 193.09961 345.99961 184.59961 370.59961 C 182.69961 375.09961 180.80039 379.50039 178.90039 383.90039 C 184.00039 380.40039 189.00078 376.90078 193.80078 373.30078 C 217.40078 357.10078 241.60078 341.4 253.30078 314.5 C 279.40078 345.7 316.00078 376.60039 360.30078 399.90039 C 377.70078 422.00039 388.6 448.89922 394.5 473.69922 C 402.8 454.59922 408.29922 433.50039 404.19922 413.40039 C 428.69922 409.80039 439.79922 383.7 439.69922 359 C 427.09922 365.2 424.6 365.29922 408.5 367.19922 C 408.5 357.09922 409.1 354.7 405.5 338.5 C 395.2 346.9 384.49922 349.70078 374.69922 350.30078 C 376.79922 342.70078 377.70039 330.8 378.40039 323 C 365.40039 330.1 359.20078 332.70078 348.30078 333.80078 C 347.90078 322.90078 348.19922 313.80039 344.19922 303.40039 C 314.59922 322.40039 295.59922 304.89961 276.19922 282.09961 C 295.99922 265.09961 372.60078 260.29922 371.30078 289.19922 C 385.30078 281.89922 390.10039 278.00078 394.90039 273.30078 C 404.00039 281.80078 408.3 294.19922 410 304.69922 C 419.3 295.29922 420.29961 294.20039 427.09961 280.90039 C 432.79961 291.00039 435.90078 297.9 437.80078 311.5 C 446.30078 305.3 453.19961 298.39961 457.59961 290.09961 C 465.09961 305.59961 465.9 306.09961 470 323.09961 C 487.8 309.99961 491.80078 291.9 492.80078 275.5 C 494.80078 242.5 492.50078 167.29961 461.80078 132.59961 C 463.50078 168.89961 448.7 202.60078 428 213.30078 C 415.4 218.20078 331.50039 138.7 290.40039 120 C 266.90039 109.8 242.29961 127.10078 222.59961 129.30078 C 146.99961 106.20078 83.569453 70.939141 29.189453 26.619141 z M 296.09961 152.80078 C 309.39961 173.70078 328.29922 189.70078 356.19922 207.80078 C 336.79922 210.70078 290.4 201.10078 278.5 183.80078 C 273 175.90078 285.59961 162.50078 296.09961 152.80078 z "
       id="path8187" />
    <path
       id="path7632"
       style="fill:#e36303;fill-opacity:1"
       d="m 232.5,366.30078 c -12,10.5 -25.20039,20.29961 -38.90039,29.59961 7,34 33.40039,63.39922 73.90039,95.69922 h 83.30078 C 293.60078,459.79961 256.2,418.30078 232.5,366.30078 Z m -119.90039,-28.10156 -10.19922,1.5 c -31.809999,36.6 -61.900234,103.20039 -48.240234,151.90039 h 36.128906 c -11.12,-37.7 -16.529453,-87.10039 22.310548,-153.40039 z" />
    <path
       id="path7604"
       d="m 209.1,461.9 c -38.1,10.9 -68.8,13.2 -107.5,0.3 1.8,10.4 4.5,20.1 7.5,29.4 H 239.2 C 227.9,481.8 217.8,472 209.1,461.9 Z M 102.5,409.5 c -2.5,11.8 -3.3,22.7 -3,32.9 37.3,14.2 62.5,13.5 97.5,4.1 -7.2,-10.3 -13,-21 -16.9,-32.3 -32.7,9.4 -55.4,5.7 -77.6,-4.7 z m 18.6,-49.8 c -5.9,11.4 -10.4,22.1 -13.8,32.1 12.9,6.7 29.1,8.9 44.8,8.2 4.6,-10.5 9.8,-21.8 14.6,-33.3 -15.4,1.8 -31.4,-1.4 -45.6,-7 z m 59.5,-40.6 c -14.4,6.2 -29.2,10.9 -43.8,14.3 -2.4,3.6 -4.6,7.1 -6.7,10.5 14.8,5.3 31.5,7 44.1,2.8 3.3,-9.8 5.5,-19.3 6.4,-27.6 z"
       style="fill:#efc104;fill-opacity:1" />
  </g>
</svg>
