<?xml version="1.0" encoding="UTF-8" standalone="no"?>
<svg
   xmlns:dc="http://purl.org/dc/elements/1.1/"
   xmlns:cc="http://creativecommons.org/ns#"
   xmlns:rdf="http://www.w3.org/1999/02/22-rdf-syntax-ns#"
   xmlns:svg="http://www.w3.org/2000/svg"
   xmlns="http://www.w3.org/2000/svg"
   xmlns:sodipodi="http://sodipodi.sourceforge.net/DTD/sodipodi-0.dtd"
   xmlns:inkscape="http://www.inkscape.org/namespaces/inkscape"
   style="height: 72px; width: 72px;"
   viewBox="0 0 512 512"
   version="1.1"
   id="svg8211"
   sodipodi:docname="dynamite.svg"
   inkscape:version="0.92.3 (2405546, 2018-03-11)">
  <metadata
     id="metadata8217">
    <rdf:RDF>
      <cc:Work
         rdf:about="">
        <dc:format>image/svg+xml</dc:format>
        <dc:type
           rdf:resource="http://purl.org/dc/dcmitype/StillImage" />
        <dc:title></dc:title>
      </cc:Work>
    </rdf:RDF>
  </metadata>
  <defs
     id="defs8215" />
  <sodipodi:namedview
     pagecolor="#ffffff"
     bordercolor="#666666"
     borderopacity="1"
     objecttolerance="10"
     gridtolerance="10"
     guidetolerance="10"
     inkscape:pageopacity="0"
     inkscape:pageshadow="2"
     inkscape:window-width="715"
     inkscape:window-height="514"
     id="namedview8213"
     showgrid="false"
     inkscape:zoom="0.4609375"
     inkscape:cx="256"
     inkscape:cy="256"
     inkscape:window-x="1652"
     inkscape:window-y="245"
     inkscape:window-maximized="0"
     inkscape:current-layer="svg8211" />
  <path
     d="M0 0h512v512H0z"
     fill="#000"
     fill-opacity="0"
     id="path8205" />
  <g
     class=""
     style="touch-action: none;"
     transform="translate(0,0)"
     id="g8209">
    <path
       id="path8223"
       d="m 298.59,233.995 -118.09,115.641 0.656,3.962 c 4.19,25.303 14.25,42.615 28.502,55.744 11.423,10.52 25.79,18.317 42.207,24.367 l 120.01,-117.517 c -36.728,-17.825 -63.1,-44.612 -73.285,-82.197 z m 83.502,-76.109 c -4.03,-0.012 -6.85,1.053 -8.447,2.617 -2.84,2.78 -4.187,9.454 -0.782,20.037 3.405,10.584 11.316,23.594 22.83,35.353 11.515,11.758 24.354,19.94 34.864,23.566 10.51,3.625 17.21,2.417 20.048,-0.362 0.71,-0.696 1.33,-1.635 1.8,-2.82 13.218,11.37 24.29,26.203 25.34,35.833 1.27,11.666 -3.506,21.664 -12.89,32.37 -9.387,10.703 -23.192,21.244 -37.308,31.977 -14.116,10.733 -28.55,21.646 -39.303,34.48 -10.754,12.83 -17.9,28.62 -14.7,46.32 2.824,15.628 11.277,31.794 25.02,42.99 13.744,11.198 33.482,16.712 55.157,9.655 l 8.56,-2.787 -5.577,-17.115 -8.557,2.787 c -16.327,5.316 -28.412,1.494 -38.214,-6.492 -9.803,-7.987 -16.62,-20.85 -18.678,-32.24 -2.084,-11.53 1.97,-21.04 10.783,-31.557 8.813,-10.518 22.32,-21.006 36.4,-31.713 14.083,-10.707 28.73,-21.645 39.95,-34.44 11.216,-12.794 19.193,-28.317 17.25,-46.18 -2.223,-20.41 -18.936,-37.77 -35.61,-50.938 -4.033,-3.187 -8.103,-6.08 -12.09,-8.623 -4.204,-8.643 -10.786,-18.118 -19.38,-26.895 -11.516,-11.76 -24.357,-19.94 -34.867,-23.565 -4.598,-1.587 -8.466,-2.25 -11.6,-2.258 z M 202.137,144.059 81.3,262.384 c 5.703,16.54 13.196,31.068 23.475,42.71 12.827,14.525 29.925,24.946 55.135,29.665 l 3.947,0.738 118.028,-115.576 c -37.01,-11.376 -62.938,-38.592 -79.748,-75.863 z M 369.09,65.93 c -4.032,-0.012 -6.853,1.053 -8.45,2.617 -2.838,2.78 -4.183,9.456 -0.78,20.04 3.406,10.582 11.315,23.59 22.83,35.35 11.514,11.757 24.353,19.94 34.863,23.565 10.51,3.626 17.212,2.418 20.05,-0.36 2.84,-2.78 4.187,-9.457 0.782,-20.04 -3.405,-10.584 -11.316,-23.592 -22.83,-35.35 -11.514,-11.76 -24.352,-19.94 -34.862,-23.566 -4.598,-1.587 -8.467,-2.247 -11.603,-2.256 z m -80.604,-0.776 c -4.03,-0.012 -6.848,1.054 -8.445,2.617 -2.837,2.78 -4.187,9.457 -0.782,20.04 3.405,10.584 11.316,23.592 22.83,35.35 11.514,11.76 24.354,19.94 34.863,23.567 10.51,3.626 17.214,2.418 20.052,-0.362 2.838,-2.78 4.186,-9.452 0.78,-20.035 -3.404,-10.583 -11.313,-23.595 -22.827,-35.353 -11.514,-11.76 -24.356,-19.94 -34.865,-23.565 -4.598,-1.586 -8.468,-2.248 -11.604,-2.258 z"
       style="fill:#dc191d;fill-opacity:1" />
    <path
       id="path8207"
       d="m 150.838,378.68 -35.076,34.347 0.07,0.07 c -0.303,0.215 -0.587,0.438 -0.832,0.678 -2.838,2.78 -4.188,9.454 -0.783,20.038 3.405,10.583 11.316,23.593 22.83,35.35 11.514,11.76 24.354,19.94 34.863,23.567 10.51,3.627 17.213,2.42 20.05,-0.36 0.246,-0.24 0.474,-0.52 0.694,-0.817 l 6.366,6.5 -6.295,-6.432 31.713,-31.054 c -36.792,-17.74 -63.268,-44.425 -73.6,-81.886 z m -95.158,-91.21 -33.522,32.827 0.07,0.07 c -0.304,0.214 -0.59,0.436 -0.833,0.676 -2.84,2.78 -4.187,9.456 -0.782,20.04 3.405,10.582 11.316,23.59 22.83,35.35 11.515,11.757 24.354,19.94 34.864,23.565 10.51,3.626 17.21,2.418 20.048,-0.36 0.245,-0.24 0.475,-0.52 0.696,-0.818 l 0.07,0.07 35.804,-35.06 C 98.119,352.216 72.35,324.85 55.681,287.47 Z m 298.355,-107.768 -27.35,26.783 0.256,1.555 c 4.19,25.305 14.25,42.618 28.503,55.747 11.904,10.965 27.008,18.968 44.295,25.12 l 31.258,-30.608 c -2.11,-0.5 -4.218,-1.103 -6.31,-1.825 -13.972,-4.82 -28.638,-14.493 -41.854,-27.99 -13.216,-13.495 -22.577,-28.36 -27.103,-42.43 -0.68,-2.11 -1.24,-4.232 -1.695,-6.352 z m -93.603,-92.727 -31.258,30.607 c 5.788,17.413 13.473,32.68 24.185,44.813 12.826,14.526 29.924,24.947 55.134,29.666 l 1.547,0.29 27.35,-26.782 c -2.107,-0.5 -4.218,-1.104 -6.31,-1.826 -13.972,-4.82 -28.638,-14.492 -41.853,-27.988 -13.216,-13.496 -22.576,-28.362 -27.102,-42.432 -0.678,-2.107 -1.238,-4.23 -1.693,-6.347 z"
       style="fill:#fdda0f;fill-opacity:1" />
  </g>
</svg>
