<?xml version="1.0" encoding="UTF-8" standalone="no"?>
<svg
   xmlns:dc="http://purl.org/dc/elements/1.1/"
   xmlns:cc="http://creativecommons.org/ns#"
   xmlns:rdf="http://www.w3.org/1999/02/22-rdf-syntax-ns#"
   xmlns:svg="http://www.w3.org/2000/svg"
   xmlns="http://www.w3.org/2000/svg"
   xmlns:sodipodi="http://sodipodi.sourceforge.net/DTD/sodipodi-0.dtd"
   xmlns:inkscape="http://www.inkscape.org/namespaces/inkscape"
   style="height: 72px; width: 72px;"
   viewBox="0 0 512 512"
   version="1.1"
   id="svg8802"
   sodipodi:docname="fire.svg"
   inkscape:version="0.92.3 (2405546, 2018-03-11)">
  <metadata
     id="metadata8808">
    <rdf:RDF>
      <cc:Work
         rdf:about="">
        <dc:format>image/svg+xml</dc:format>
        <dc:type
           rdf:resource="http://purl.org/dc/dcmitype/StillImage" />
        <dc:title></dc:title>
      </cc:Work>
    </rdf:RDF>
  </metadata>
  <defs
     id="defs8806" />
  <sodipodi:namedview
     pagecolor="#ffffff"
     bordercolor="#666666"
     borderopacity="1"
     objecttolerance="10"
     gridtolerance="10"
     guidetolerance="10"
     inkscape:pageopacity="0"
     inkscape:pageshadow="2"
     inkscape:window-width="1920"
     inkscape:window-height="1018"
     id="namedview8804"
     showgrid="false"
     inkscape:zoom="0.4609375"
     inkscape:cx="-96.542373"
     inkscape:cy="256"
     inkscape:window-x="1272"
     inkscape:window-y="-8"
     inkscape:window-maximized="1"
     inkscape:current-layer="svg8802" />
  <path
     d="M0 0h512v512H0z"
     fill="#000"
     fill-opacity="0"
     id="path8796" />
  <g
     class=""
     style="touch-action: none;"
     transform="translate(0,0)"
     id="g8800">
    <path
       d="m 162.22,21.312 c -183.876,106.68 51.994,227.35 -10.19,332.47 C 116.95,413.083 38.11,325.45 43.75,227 -6.035,353.376 30.21,443.745 95.22,492.75 c 1.386,0.34 17.577,0.498 41.186,0.562 -28.478,-16.9 -32.06,-75.355 32.813,-103.25 l 15.78,-7 -2.937,16.938 c -1.356,8.34 -0.318,13.95 1.188,16.937 1.507,2.987 3.106,3.544 5.844,4.094 5.475,1.1 16.963,-2.395 26.28,-14.624 18.636,-24.457 29.117,-80.228 -26.874,-167 l -4.094,-6.437 -13.906,-19.25 23.25,9.905 5.25,1.75 c 80.85,25.498 135.3,58.46 174.625,112.72 21.544,-22.906 38.7,-56.835 43.812,-91.69 l 3.5,-27.468 13.438,23.97 c 25.525,45.802 30.267,104.912 11.094,156.5 -14.23,38.28 -42.036,72.34 -84,93.5 13.623,-0.01 24.05,0.032 25.25,0.124 154.76,-34.77 139.345,-244.952 -14.19,-394.093 0.012,0.726 0,1.46 0,2.188 78.964,185.87 -136.465,189.104 -119.25,11.47 -41.686,100.463 -132.86,-2.147 -91.06,-91.283 z"
       id="path8812"
       style="fill:#f59920;fill-opacity:1" />
    <path
       d="m 269.093,332.25 c 13.51,15.806 22.35,33.086 22.78,50.812 0.587,24.03 -9.293,47.12 -24.53,66.563 -14.832,18.926 -34.837,34.62 -56.625,43.656 33.127,-0.065 64.926,-0.16 95.217,-0.25 l -0.062,-0.186 c 30.95,-18.584 47.31,-38.83 53.75,-57.813 6.44,-18.982 3.25,-37.246 -5.844,-53.718 -15.44,-27.97 -49.705,-47.71 -84.686,-49.062 z"
       id="path8798"
       style="fill:#fffc04;fill-opacity:1" />
  </g>
</svg>
