<?xml version="1.0" encoding="UTF-8" standalone="no"?>
<svg
   xmlns:dc="http://purl.org/dc/elements/1.1/"
   xmlns:cc="http://creativecommons.org/ns#"
   xmlns:rdf="http://www.w3.org/1999/02/22-rdf-syntax-ns#"
   xmlns:svg="http://www.w3.org/2000/svg"
   xmlns="http://www.w3.org/2000/svg"
   xmlns:sodipodi="http://sodipodi.sourceforge.net/DTD/sodipodi-0.dtd"
   xmlns:inkscape="http://www.inkscape.org/namespaces/inkscape"
   style="height: 72px; width: 72px;"
   viewBox="0 0 512 512"
   version="1.1"
   id="svg9999"
   sodipodi:docname="lightning.svg"
   inkscape:version="0.92.3 (2405546, 2018-03-11)">
  <metadata
     id="metadata10005">
    <rdf:RDF>
      <cc:Work
         rdf:about="">
        <dc:format>image/svg+xml</dc:format>
        <dc:type
           rdf:resource="http://purl.org/dc/dcmitype/StillImage" />
        <dc:title></dc:title>
      </cc:Work>
    </rdf:RDF>
  </metadata>
  <defs
     id="defs10003" />
  <sodipodi:namedview
     pagecolor="#ffffff"
     bordercolor="#666666"
     borderopacity="1"
     objecttolerance="10"
     gridtolerance="10"
     guidetolerance="10"
     inkscape:pageopacity="0"
     inkscape:pageshadow="2"
     inkscape:window-width="715"
     inkscape:window-height="480"
     id="namedview10001"
     showgrid="false"
     inkscape:zoom="0.4609375"
     inkscape:cx="256"
     inkscape:cy="256"
     inkscape:window-x="0"
     inkscape:window-y="0"
     inkscape:window-maximized="0"
     inkscape:current-layer="svg9999" />
  <path
     d="M0 0h512v512H0z"
     fill="#000"
     fill-opacity="0"
     id="path9993" />
  <g
     class=""
     style="touch-action:none;fill:#9084b8;fill-opacity:1"
     transform="translate(0,0)"
     id="g9997">
    <path
       d="M19.84 19.947v57.305l70.31 28.326-1.896.434c12.213 53.392-5.893 155.87-30.828 212.508l-1.865 4.236 95.038 171.86h21.355l-53.166-96.143 70.908 11.306 49.078 84.835h21.59l-58.945-101.89-94.11-15.006-30.974-56.015c14.24-33.763 26.116-78.726 31.613-122.402 36.702 52.688 87.49 91.51 150.307 117.468l-42.524 56.25 110.696-3.39-20.938 107.442 36.47 17.543h43.112l-58.478-28.13 6.715-34.452 93.666 24.994 30.886 37.588h36.646v-20.68l-47.094-56.037c-23.62 1.667-48.992-5.188-70.86-20.316-.09-10.192.878-20.03 2.753-29.568l68.13-2.086 47.07 43.76V384.17l-39.97-37.156-70.252 2.15c5.574-16.8 13.888-32.684 24.07-47.945-43.356-22.47-72.41-50.796-90.066-82.745 21.43-2.416 42.896-6.837 64.38-13.75l47.82 74.295 64.02 9.26V269.4l-52.913-7.654-51.078-79.355-6.946 2.41c-60.644 21.063-121.398 20.804-182.894 10.532-50.274-52.162-36.778-108.118 6.07-129.256l100.938 60.31 96.457-11.402 90.366 109.04V194.74L412.043 95.23 311.81 107.078l-145.833-87.13H19.84zm218.752 229.84c.978-.007 1.95-.005 2.912.008 55.755.72 85.412 33.977 90.57 90.85l-1.982 10.177-75.91 2.323 33.88-44.815-11.656-4.426c-32.562-12.363-61.618-27.98-87.12-47.056 18.2-4.643 34.633-6.954 49.306-7.06z"
       fill="#eeeeee"
       fill-opacity="1"
       id="path9995"
       style="fill:#9084b8;fill-opacity:1" />
  </g>
</svg>
