<?xml version="1.0" encoding="UTF-8" standalone="no"?>
<svg
   xmlns:dc="http://purl.org/dc/elements/1.1/"
   xmlns:cc="http://creativecommons.org/ns#"
   xmlns:rdf="http://www.w3.org/1999/02/22-rdf-syntax-ns#"
   xmlns:svg="http://www.w3.org/2000/svg"
   xmlns="http://www.w3.org/2000/svg"
   xmlns:sodipodi="http://sodipodi.sourceforge.net/DTD/sodipodi-0.dtd"
   xmlns:inkscape="http://www.inkscape.org/namespaces/inkscape"
   style="height: 72px; width: 72px;"
   viewBox="0 0 512 512"
   version="1.1"
   id="svg11163"
   sodipodi:docname="monkey.svg"
   inkscape:version="0.92.3 (2405546, 2018-03-11)">
  <metadata
     id="metadata11169">
    <rdf:RDF>
      <cc:Work
         rdf:about="">
        <dc:format>image/svg+xml</dc:format>
        <dc:type
           rdf:resource="http://purl.org/dc/dcmitype/StillImage" />
        <dc:title></dc:title>
      </cc:Work>
    </rdf:RDF>
  </metadata>
  <defs
     id="defs11167" />
  <sodipodi:namedview
     pagecolor="#ffffff"
     bordercolor="#666666"
     borderopacity="1"
     objecttolerance="10"
     gridtolerance="10"
     guidetolerance="10"
     inkscape:pageopacity="0"
     inkscape:pageshadow="2"
     inkscape:window-width="715"
     inkscape:window-height="480"
     id="namedview11165"
     showgrid="false"
     inkscape:zoom="0.4609375"
     inkscape:cx="256"
     inkscape:cy="232.13559"
     inkscape:window-x="1786"
     inkscape:window-y="272"
     inkscape:window-maximized="0"
     inkscape:current-layer="svg11163" />
  <path
     d="M0 0h512v512H0z"
     fill="#000"
     fill-opacity="0"
     id="path11157" />
  <g
     class=""
     style="touch-action: none;"
     transform="translate(0,0)"
     id="g11161">
    <path
       d="M 199.5293 19.029297 L 183.7207 62.625 L 135.7793 45.71875 L 173.625 89.5625 C 152.143 105.1675 135.1705 126.63105 125.0625 151.62305 C 116.2625 148.15105 106.68925 146.21875 96.65625 146.21875 C 95.98625 146.21875 95.32225 146.20075 94.65625 146.21875 C 52.70225 147.28475 19 181.7255 19 224.0625 C 19 267.0705 53.77525 301.9375 96.65625 301.9375 C 115.71225 301.9375 133.14925 295.04905 146.65625 283.62305 C 153.88625 290.28305 162.1785 295.9615 171.3125 300.6875 C 158.6005 317.4015 150.6265 337.9413 149.4375 360.2793 C 154.6055 365.9143 162.36725 371.4245 172.78125 376.3125 C 193.69125 386.1225 223.7205 392.5625 256.9375 392.5625 C 290.1545 392.5625 320.1887 386.1225 341.0957 376.3125 C 351.5297 371.4155 359.2957 365.895 364.4707 360.25 C 363.2747 337.917 355.31375 317.36625 342.59375 300.65625 C 351.71175 295.93625 359.99875 290.27695 367.21875 283.62695 C 380.73175 295.05195 398.19205 301.9375 417.24805 301.9375 C 460.12805 301.9375 494.87305 267.0705 494.87305 224.0625 C 494.87305 181.0525 460.12905 146.21875 417.24805 146.21875 C 416.57805 146.21875 415.91405 146.20075 415.24805 146.21875 C 405.92805 146.45475 397.0073 148.34175 388.7793 151.59375 C 382.4733 136.01075 373.4763 121.8073 362.4043 109.5293 L 392.96875 102.9707 L 329.71875 82.220703 L 349.37305 53.90625 L 282.93555 64.876953 C 274.50855 63.311953 265.81355 62.5 256.93555 62.5 C 243.42355 62.5 230.3548 64.3995 217.9668 67.9375 L 199.5293 19.029297 z M 95.75 166.75 L 95.751953 166.75 C 103.5813 166.75027 111.40211 168.37277 118.6875 171.5625 C 117.3725 177.0125 116.3575 182.576 115.6875 188.25 C 100.1375 179.46 80.18625 181.7335 66.90625 195.0625 C 50.90925 211.1195 50.90925 236.97825 66.90625 253.03125 C 82.85225 269.03425 108.42855 269.0855 124.43555 253.1875 C 126.81355 258.3595 129.62925 263.1887 132.78125 267.7207 C 110.37825 286.8667 76.4665 285.81975 55.3125 264.59375 C 33.0695 242.27175 33.0705 205.826 55.3125 183.5 C 66.434006 172.3385 81.09665 166.7505 95.75 166.75 z M 418.15625 166.75 C 432.81025 166.75 447.47275 172.338 458.59375 183.5 C 480.83675 205.826 480.83775 242.27175 458.59375 264.59375 C 437.44575 285.81575 403.53105 286.84975 381.12305 267.71875 C 384.28105 263.17875 387.0595 258.3353 389.4375 253.1543 C 405.4445 269.0843 431.044 269.0423 447 253.0293 C 462.997 236.9773 462.998 211.1205 447 195.0625 C 433.72 181.7345 413.7687 179.46 398.2207 188.25 C 397.5507 182.576 396.5337 177.0135 395.2207 171.5625 C 402.5127 168.3725 410.32625 166.749 418.15625 166.75 z M 194.93555 183.15625 L 194.9375 183.15625 C 215.7486 183.15731 232.62695 200.0642 232.62695 220.93555 C 232.62695 241.80855 215.74755 258.75 194.93555 258.75 C 174.12555 258.75 157.25 241.8105 157.25 220.9375 C 157.25 200.06816 174.12545 183.15731 194.93555 183.15625 z M 320.46875 186.28125 C 340.43875 186.28125 356.62305 202.5305 356.62305 222.5625 C 356.62305 242.5945 340.44075 258.8457 320.46875 258.8457 C 300.49475 258.8457 284.27734 242.59445 284.27734 222.56445 C 284.27734 202.53145 300.49475 186.28125 320.46875 186.28125 z M 229.31055 265.5957 L 247.31055 270.56445 L 237.53125 306.0625 L 219.53125 301.0957 L 229.31055 265.5957 z M 284.56055 265.5957 L 294.34375 301.0957 L 276.34375 306.06445 L 266.5625 270.5625 L 284.56055 265.5957 z "
       id="path11185"
       style="fill:#ab0a09;fill-opacity:1" />
    <path
       d="m 362.655,385.751 c -4.226,2.705 -8.79,5.2 -13.625,7.47 -24.213,11.362 -56.503,18.03 -92.092,18.03 -35.59,0 -67.88,-6.668 -92.094,-18.03 -4.822,-2.264 -9.38,-4.743 -13.594,-7.44 9.62,44.998 53.293,62.564 105.688,62.564 52.407,0 96.112,-17.573 105.718,-62.594 z"
       id="path11159"
       style="fill:#ce785b;fill-opacity:1" />
  </g>
</svg>
