<?xml version="1.0" encoding="UTF-8" standalone="no"?>
<svg
   xmlns:dc="http://purl.org/dc/elements/1.1/"
   xmlns:cc="http://creativecommons.org/ns#"
   xmlns:rdf="http://www.w3.org/1999/02/22-rdf-syntax-ns#"
   xmlns:svg="http://www.w3.org/2000/svg"
   xmlns="http://www.w3.org/2000/svg"
   xmlns:sodipodi="http://sodipodi.sourceforge.net/DTD/sodipodi-0.dtd"
   xmlns:inkscape="http://www.inkscape.org/namespaces/inkscape"
   style="height: 72px; width: 72px;"
   viewBox="0 0 512 512"
   version="1.1"
   id="svg11766"
   sodipodi:docname="moon.svg"
   inkscape:version="0.92.3 (2405546, 2018-03-11)">
  <metadata
     id="metadata11772">
    <rdf:RDF>
      <cc:Work
         rdf:about="">
        <dc:format>image/svg+xml</dc:format>
        <dc:type
           rdf:resource="http://purl.org/dc/dcmitype/StillImage" />
        <dc:title></dc:title>
      </cc:Work>
    </rdf:RDF>
  </metadata>
  <defs
     id="defs11770" />
  <sodipodi:namedview
     pagecolor="#ffffff"
     bordercolor="#666666"
     borderopacity="1"
     objecttolerance="10"
     gridtolerance="10"
     guidetolerance="10"
     inkscape:pageopacity="0"
     inkscape:pageshadow="2"
     inkscape:window-width="715"
     inkscape:window-height="402"
     id="namedview11768"
     showgrid="false"
     inkscape:zoom="0.4609375"
     inkscape:cx="256"
     inkscape:cy="256"
     inkscape:window-x="1806"
     inkscape:window-y="138"
     inkscape:window-maximized="0"
     inkscape:current-layer="svg11766" />
  <path
     d="M0 0h512v512H0z"
     fill="#000"
     fill-opacity="0"
     id="path11760" />
  <g
     class=""
     style="touch-action: none;"
     transform="translate(0,0)"
     id="g11764">
    <path
       d="m 253.125,18.563 c -131.53,0 -238.375,106.813 -238.375,238.343 0,131.53 106.846,238.344 238.375,238.344 131.53,0 238.344,-106.815 238.344,-238.344 0,-131.528 -106.816,-238.344 -238.345,-238.344 z"
       id="path11776"
       style="fill-opacity:1;fill:#040039" />
    <path
       d="m 229.187,70.656 c 40.517,0 77.988,12.904 108.532,34.813 -5.597,-0.624 -11.302,-0.97 -17.064,-0.97 -84.157,0 -152.375,68.25 -152.375,152.406 0,84.157 68.22,152.375 152.376,152.375 5.762,0 11.467,-0.313 17.063,-0.936 -30.545,21.91 -68.016,34.812 -108.533,34.812 -102.98,0 -186.28,-83.272 -186.28,-186.25 0,-102.977 83.3,-186.25 186.28,-186.25 z"
       id="path11762"
       style="fill:#f3f93f;fill-opacity:1" />
  </g>
</svg>
