<?xml version="1.0" encoding="UTF-8" standalone="no"?>
<svg
   xmlns:dc="http://purl.org/dc/elements/1.1/"
   xmlns:cc="http://creativecommons.org/ns#"
   xmlns:rdf="http://www.w3.org/1999/02/22-rdf-syntax-ns#"
   xmlns:svg="http://www.w3.org/2000/svg"
   xmlns="http://www.w3.org/2000/svg"
   xmlns:sodipodi="http://sodipodi.sourceforge.net/DTD/sodipodi-0.dtd"
   xmlns:inkscape="http://www.inkscape.org/namespaces/inkscape"
   style="height: 72px; width: 72px;"
   viewBox="0 0 512 512"
   version="1.1"
   id="svg12349"
   sodipodi:docname="nuke.svg"
   inkscape:version="0.92.3 (2405546, 2018-03-11)">
  <metadata
     id="metadata12355">
    <rdf:RDF>
      <cc:Work
         rdf:about="">
        <dc:format>image/svg+xml</dc:format>
        <dc:type
           rdf:resource="http://purl.org/dc/dcmitype/StillImage" />
        <dc:title></dc:title>
      </cc:Work>
    </rdf:RDF>
  </metadata>
  <defs
     id="defs12353" />
  <sodipodi:namedview
     pagecolor="#ffffff"
     bordercolor="#666666"
     borderopacity="1"
     objecttolerance="10"
     gridtolerance="10"
     guidetolerance="10"
     inkscape:pageopacity="0"
     inkscape:pageshadow="2"
     inkscape:window-width="715"
     inkscape:window-height="480"
     id="namedview12351"
     showgrid="false"
     inkscape:zoom="0.4609375"
     inkscape:cx="256"
     inkscape:cy="256"
     inkscape:window-x="2037"
     inkscape:window-y="427"
     inkscape:window-maximized="0"
     inkscape:current-layer="svg12349" />
  <path
     d="M0 0h512v512H0z"
     fill="#000"
     fill-opacity="0"
     id="path12343" />
  <g
     class=""
     style="touch-action: none;"
     transform="translate(0,0)"
     id="g12347">
    <path
       d="m 279.775,17.137 c -18.823,-0.262 -38.412,6.822 -51.54,20.02 l -5.858,5.89 -6.535,-5.127 C 180.046,9.837 137.695,15.382 117.115,48.31 l -3.465,5.547 -6.398,-1.357 c -27.027,-5.737 -53.6,4.882 -69.373,23.047 -15.776,18.165 -21.16,42.634 -5.937,68.43 l 3.68,6.234 -5.12,5.122 c -7.12,7.122 -9.71,16.235 -8.956,26.824 0.753,10.59 5.242,22.277 12.04,31.98 6.8,9.705 15.853,17.3 24.67,20.634 8.82,3.333 16.93,3.112 25.68,-2.877 l 6.626,-4.538 5.48,5.868 c 18.752,20.07 63.427,19.456 81.504,-9.315 l 4.967,-7.906 7.91,4.96 c 9.652,6.05 21.095,6.628 32.078,3.243 10.983,-3.384 21.017,-10.924 26.445,-19.56 l 8.34,-13.272 7.707,13.648 c 5.984,10.6 21.754,20.7 39.238,24.517 17.485,3.818 35.716,1.47 46.955,-7.793 l 7.116,-5.863 5.96,7.036 c 13.405,15.834 34.384,19.713 51.292,15.234 8.453,-2.24 15.61,-6.562 20.1,-11.894 4.49,-5.332 6.64,-11.394 5.548,-19.36 l -1.412,-10.292 10.386,-0.317 c 14.28,-0.435 23.67,-5.757 30.195,-13.635 6.527,-7.877 9.99,-18.775 9.966,-30.103 -0.05,-22.658 -12.994,-45.11 -39.104,-48.66 l -9.843,-1.34 1.936,-9.743 c 1.49,-7.49 -1.057,-16.514 -7.54,-25.764 -6.485,-9.25 -16.708,-18.272 -28.37,-24.904 C 395.754,35.507 382.69,31.275 370.82,30.753 358.95,30.231 348.554,33.138 340.2,40.616 l -7.743,6.934 -6.072,-8.437 C 316.049,24.753 298.599,17.398 279.775,17.137 Z"
       id="path12365"
       style="fill:#e56c20;fill-opacity:1" />
    <path
       d="m 256.645,224.75 c -7.79,7.932 -17.737,13.957 -28.64,17.316 -12.57,3.874 -26.675,4.027 -39.61,-1.3 -13.607,16.66 -33.646,25.044 -53.58,25.658 0.803,2.694 2.022,5.36 3.65,7.885 4.48,6.947 11.786,12.436 20.377,14.188 8.59,1.752 18.766,0.2 30.504,-8.578 l 9.133,-6.828 4.9,10.295 c 1.805,3.793 10.955,9.652 22.417,10.94 11.462,1.286 23.836,-1.518 30.982,-8.206 l 7.2,-6.737 6.34,7.55 c 7.687,9.153 18.164,11.31 28.223,9.768 10.06,-1.54 18.25,-8.15 19.394,-10.936 l 4.225,-10.297 9.41,5.943 c 9.343,5.9 17.365,6.48 24.47,4.494 7.103,-1.987 13.382,-6.983 17.39,-13.273 3.672,-5.763 5.297,-12.387 4.51,-18.327 -7.83,-2.86 -15.302,-7.21 -21.903,-13.22 -16.45,9.763 -37.038,10.807 -55.794,6.712 -16.836,-3.676 -32.71,-11.465 -43.6,-23.045 z"
       id="path12363"
       style="fill:#a39a59;fill-opacity:1" />
    <path
       d="M 262.41016 305.125 C 254.6707 309.96106 245.81888 312.42907 236.96875 313.125 L 236.96875 355.0625 C 197.48475 356.0755 162.02605 359.68125 134.74805 365.15625 C 118.53405 368.41125 105.23375 372.226 95.21875 377 C 90.20875 379.387 85.985297 381.99425 82.529297 385.40625 C 79.075297 388.81825 76.185547 393.60325 76.185547 399.15625 C 76.185547 404.70925 79.051047 409.48425 82.498047 412.90625 C 85.945047 416.32825 90.1815 418.93575 95.1875 421.34375 C 105.1975 426.16175 118.5008 430.06305 134.7168 433.37305 C 154.9348 437.50305 179.6463 440.61705 207.1543 442.37305 C 191.3043 463.37805 170.86375 481.0815 150.21875 492.8125 L 364.5 492.8125 C 344.107 480.7825 324.7493 463.148 309.7793 442.5 C 338.2893 440.774 363.8947 437.628 384.7207 433.375 C 400.9357 430.063 414.24 426.1627 424.25 421.3457 C 429.256 418.9357 433.4895 416.3283 436.9375 412.9043 C 440.3835 409.4843 443.21875 404.7083 443.21875 399.1543 C 443.21875 393.6043 440.36125 388.8173 436.90625 385.4043 C 433.45125 381.9943 429.22575 379.387 424.21875 377 C 414.20175 372.227 400.89855 368.41025 384.68555 365.15625 C 357.04055 359.60625 320.99705 355.98625 280.87305 355.03125 L 280.87305 314.25586 C 274.40005 312.64586 268.05616 309.705 262.41016 305.125 z M 281.5293 373.71875 L 281.53125 373.71875 C 320.36525 374.70475 355.14 378.27675 381 383.46875 C 396.31 386.54075 408.53825 390.24205 416.15625 393.87305 C 419.96625 395.68805 422.59425 397.5145 423.78125 398.6875 C 424.07925 398.9805 424.06145 399.0033 424.18945 399.1543 C 424.05945 399.3103 424.06695 399.3423 423.75195 399.6543 C 422.55595 400.8413 419.93795 402.6943 416.12695 404.5293 C 408.50495 408.1993 396.2767 411.9355 380.9707 415.0625 C 358.8907 419.5725 330.3 422.89625 298.25 424.40625 C 289.434 408.39925 283.4253 391.19275 281.5293 373.71875 z M 236.375 373.7793 C 234.495 391.2633 228.2177 408.4235 219.0957 424.3125 C 187.8787 422.7575 160.0385 419.4745 138.4375 415.0625 C 123.1295 411.9355 110.90425 408.1983 103.28125 404.5293 C 99.47125 402.6963 96.85225 400.84425 95.65625 399.65625 C 95.33625 399.33825 95.347703 399.31225 95.220703 399.15625 C 95.346703 399.00625 95.35425 398.98555 95.65625 398.68555 C 96.84425 397.51555 99.441 395.69095 103.25 393.87695 C 110.87 390.24495 123.09625 386.54175 138.40625 383.46875 C 163.93081 378.34384 198.14379 374.82136 236.375 373.7793 z "
       id="path12361"
       style="fill:#c6c971;fill-opacity:1" />
  </g>
</svg>
