<?xml version="1.0" encoding="UTF-8" standalone="no"?>
<svg
   xmlns:dc="http://purl.org/dc/elements/1.1/"
   xmlns:cc="http://creativecommons.org/ns#"
   xmlns:rdf="http://www.w3.org/1999/02/22-rdf-syntax-ns#"
   xmlns:svg="http://www.w3.org/2000/svg"
   xmlns="http://www.w3.org/2000/svg"
   xmlns:sodipodi="http://sodipodi.sourceforge.net/DTD/sodipodi-0.dtd"
   xmlns:inkscape="http://www.inkscape.org/namespaces/inkscape"
   style="height: 72px; width: 72px;"
   viewBox="0 0 512 512"
   version="1.1"
   id="svg12945"
   sodipodi:docname="paper.svg"
   inkscape:version="0.92.3 (2405546, 2018-03-11)">
  <metadata
     id="metadata12951">
    <rdf:RDF>
      <cc:Work
         rdf:about="">
        <dc:format>image/svg+xml</dc:format>
        <dc:type
           rdf:resource="http://purl.org/dc/dcmitype/StillImage" />
        <dc:title></dc:title>
      </cc:Work>
    </rdf:RDF>
  </metadata>
  <defs
     id="defs12949" />
  <sodipodi:namedview
     pagecolor="#ffffff"
     bordercolor="#666666"
     borderopacity="1"
     objecttolerance="10"
     gridtolerance="10"
     guidetolerance="10"
     inkscape:pageopacity="0"
     inkscape:pageshadow="2"
     inkscape:window-width="715"
     inkscape:window-height="486"
     id="namedview12947"
     showgrid="false"
     inkscape:zoom="0.4609375"
     inkscape:cx="256"
     inkscape:cy="256"
     inkscape:window-x="2065"
     inkscape:window-y="355"
     inkscape:window-maximized="0"
     inkscape:current-layer="svg12945" />
  <path
     d="M0 0h512v512H0z"
     fill="#000"
     fill-opacity="0"
     id="path12939" />
  <g
     class=""
     style="touch-action:none;fill:#9f5bab;fill-opacity:1"
     transform="translate(0,0)"
     id="g12943">
    <path
       d="M210.28 18.344c-21.362 43.312-84.904 72.3-146.968 101.78L181.22 156.94 54.312 142.5c28.592 58.053 71.69 113.348 120.968 157.75l99.314 29.906L179 323.312c-35.158 32.766-95.2 70.74-161.5 91.782 88.447 40.53 161.28 46.956 280.344 77.25C378.36 453.12 415.57 425.644 470.094 382l-149.25-42.438 147.47 18.938c-49.763-45.25-89.572-102.69-115.47-161.438L227.53 165.125l141.064 13.594c55.096-20.42 85.08-49.28 124.53-102.282-97.707-20.988-177.93-45.69-282.843-58.094z"
       fill="#eeeeee"
       fill-opacity="1"
       id="path12941"
       style="fill:#9f5bab;fill-opacity:1" />
  </g>
</svg>
