<svg xmlns="http://www.w3.org/2000/svg" width="14" height="14"><path fill="#871D18" d="M7 0C3.13 0 0 3.13 0 7s3.13 7 7 7 7-3.13 7-7-3.13-7-7-7zM5.37 11.58c-.84 0-1.14-.42-1.21-1.53l.21-.21c.39.14.81.2 1.27.2 1.26 0 2.19-.6 2.19-1.42 0-.83-.69-1.2-2.22-1.2l-.14-.17-.1-.93.97-.21c.67-.3 1.13-.87 1.13-1.44 0-.48-.39-.81-.92-.81-.51 0-1.13.29-1.65.74-.06 0-.12.01-.18.01l-.31-1.06c.42-.33 1.77-1.13 2.79-1.13 1.33 0 2.34.69 2.34 1.76C9.53 5 9 5.8 8 6.22v.12c1 .36 1.97 1.05 1.97 1.98 0 1.57-2.43 3.26-4.6 3.26z"/></svg>
